<svg width="1000" height="1000" viewBox="0 0 1000 1000" fill="none" xmlns="http://www.w3.org/2000/svg">
<circle cx="500" cy="500" r="500" fill="#ff7f7f"/>
<g clip-path="url(#clip0_0_1)">
<path d="M643.25 500.5L742.75 401C752.5 391.25 752.5 375.5 742.75 365.75L634.25 257.25C624.5 247.5 608.75 247.5 599 257.25L499.5 356.75L400 257.25C395 252.5 388.75 250 382.25 250C376 250 369.5 252.5 364.75 257.25L256.25 365.75C246.5 375.5 246.5 391.25 256.25 401L355.75 500.5L256.25 600C246.5 609.75 246.5 625.5 256.25 635.25L364.75 743.75C374.5 753.5 390.25 753.5 400 743.75L499.5 644.25L599 743.75C604 748.75 610.25 751 616.75 751C623.25 751 629.5 748.5 634.5 743.75L743 635.25C752.75 625.5 752.75 609.75 743 600L643.25 500.5ZM500 425C513.75 425 525 436.25 525 450C525 463.75 513.75 475 500 475C486.25 475 475 463.75 475 450C475 436.25 486.25 425 500 425ZM382.25 474L291.5 383.5L382.25 292.75L472.75 383.25L382.25 474ZM450 525C436.25 525 425 513.75 425 500C425 486.25 436.25 475 450 475C463.75 475 475 486.25 475 500C475 513.75 463.75 525 450 525ZM500 575C486.25 575 475 563.75 475 550C475 536.25 486.25 525 500 525C513.75 525 525 536.25 525 550C525 563.75 513.75 575 500 575ZM550 475C563.75 475 575 486.25 575 500C575 513.75 563.75 525 550 525C536.25 525 525 513.75 525 500C525 486.25 536.25 475 550 475ZM616.5 708.5L525.75 618L616.5 527.25L707 617.75L616.5 708.5Z" fill="#FE0002"/>
</g>
<defs>
<clipPath id="clip0_0_1">
<rect width="600" height="600" fill="white" transform="translate(200 200)"/>
</clipPath>
</defs>
</svg>