<svg width="515" height="515" viewBox="0 0 515 515" fill="none" xmlns="http://www.w3.org/2000/svg">
<path d="M257.5 515C399.713 515 515 399.713 515 257.5C515 115.287 399.713 0 257.5 0C115.287 0 0 115.287 0 257.5C0 399.713 115.287 515 257.5 515Z" fill="#fff"/>
<g filter="url(#filter0_d_0_1)">
<path d="M251 263.5C311.751 263.5 361 223.877 361 175C361 126.123 311.751 86.5 251 86.5C190.249 86.5 141 126.123 141 175C141 223.877 190.249 263.5 251 263.5Z" fill="#fff"/>
<path d="M353.5 175C353.5 218.294 309.214 256 251 256C192.786 256 148.5 218.294 148.5 175C148.5 131.706 192.786 94 251 94C309.214 94 353.5 131.706 353.5 175Z" stroke="#001A2D" stroke-width="15"/>
</g>
<path d="M169.5 347.336V286.641C169.5 286.25 169.728 285.896 170.083 285.732L199.438 272.258C199.782 272.1 200.187 272.15 200.482 272.388L222.848 290.378C222.948 290.458 223.064 290.519 223.187 290.556L257.495 300.848C257.811 300.943 258.154 300.876 258.41 300.669L270.904 290.578C270.968 290.526 271.038 290.483 271.112 290.448L310.437 272.26C310.782 272.101 311.187 272.151 311.483 272.389L333.627 290.2C333.863 290.39 334 290.676 334 290.979V351.731C334 352.184 333.695 352.581 333.256 352.697L285.366 365.403C285.13 365.465 284.925 365.612 284.79 365.815L258.378 405.433C258.15 405.775 257.736 405.943 257.334 405.855L235.392 401.085C235.14 401.03 234.92 400.881 234.776 400.668L211.166 365.746C211.058 365.585 210.905 365.46 210.726 365.385L170.111 348.258C169.741 348.102 169.5 347.739 169.5 347.336Z" fill="#fff"/>
<path d="M185.5 412C198.131 437.263 222 458.666 238 467.5C226.5 465.166 187.583 456.925 168.5 423C146 383 156 333.5 159 296C161.4 266 198 258 218.5 270C231.5 283.5 253.1 306.7 271.5 283.5C289.9 260.3 316 262 330.5 273.5C346.5 292.5 343.477 292.149 346.5 328C350 369.5 336.5 409.5 329 423C321.5 436.5 280.5 459 292 448.5C303.5 438 315.4 422.5 321 406.5C328 386.5 329 341 329 328C329 315 330.5 287 311 283.5C293.713 280.397 288.5 300 269 311.5C258.5 317.692 237.48 317.472 228 304C218.5 290.5 205.5 283.5 196 283.5C190.5 283.5 175.5 283.5 175.5 315C175.5 342.5 168.5 378 185.5 412Z" fill="#001A2D"/>
<path d="M226.5 175C226.5 181.982 225.112 188.279 222.89 192.811C220.652 197.376 217.655 200 214.5 200C211.345 200 208.348 197.376 206.11 192.811C203.888 188.279 202.5 181.982 202.5 175C202.5 168.018 203.888 161.721 206.11 157.189C208.348 152.624 211.345 150 214.5 150C217.655 150 220.652 152.624 222.89 157.189C225.112 161.721 226.5 168.018 226.5 175Z" fill="black"/>
<path d="M226.5 175C226.5 181.982 225.112 188.279 222.89 192.811C220.652 197.376 217.655 200 214.5 200C211.345 200 208.348 197.376 206.11 192.811C203.888 188.279 202.5 181.982 202.5 175C202.5 168.018 203.888 161.721 206.11 157.189C208.348 152.624 211.345 150 214.5 150C217.655 150 220.652 152.624 222.89 157.189C225.112 161.721 226.5 168.018 226.5 175Z" fill="black"/>
<path d="M226.5 175C226.5 181.982 225.112 188.279 222.89 192.811C220.652 197.376 217.655 200 214.5 200C211.345 200 208.348 197.376 206.11 192.811C203.888 188.279 202.5 181.982 202.5 175C202.5 168.018 203.888 161.721 206.11 157.189C208.348 152.624 211.345 150 214.5 150C217.655 150 220.652 152.624 222.89 157.189C225.112 161.721 226.5 168.018 226.5 175Z" fill="#001A2D"/>
<path d="M226.5 175C226.5 181.982 225.112 188.279 222.89 192.811C220.652 197.376 217.655 200 214.5 200C211.345 200 208.348 197.376 206.11 192.811C203.888 188.279 202.5 181.982 202.5 175C202.5 168.018 203.888 161.721 206.11 157.189C208.348 152.624 211.345 150 214.5 150C217.655 150 220.652 152.624 222.89 157.189C225.112 161.721 226.5 168.018 226.5 175Z" stroke="#001A2D"/>
<path d="M299 175C299 189.083 293.403 200.5 286.5 200.5C279.596 200.5 274 189.083 274 175C274 160.917 279.596 149.5 286.5 149.5C293.403 149.5 299 160.917 299 175Z" fill="black"/>
<path d="M299 175C299 189.083 293.403 200.5 286.5 200.5C279.596 200.5 274 189.083 274 175C274 160.917 279.596 149.5 286.5 149.5C293.403 149.5 299 160.917 299 175Z" fill="black"/>
<path d="M299 175C299 189.083 293.403 200.5 286.5 200.5C279.596 200.5 274 189.083 274 175C274 160.917 279.596 149.5 286.5 149.5C293.403 149.5 299 160.917 299 175Z" fill="#001A2D"/>
<path d="M299 175C299 189.083 293.403 200.5 286.5 200.5C279.596 200.5 274 189.083 274 175C274 160.917 279.596 149.5 286.5 149.5C293.403 149.5 299 160.917 299 175Z" stroke="#001A2D"/>
<path d="M146.325 259.5C146.325 259.5 110.839 351.885 155.687 351.885C242.947 351.885 210.855 406.5 250.259 406.5C289.348 406.5 254.697 351.885 347.319 351.885C384.322 351.885 351.757 259.5 351.757 259.5" stroke="#001A2D" stroke-width="15"/>
<path d="M364.623 249.978C365.527 251.999 364.869 254.613 362.828 257.27C360.802 259.909 357.485 262.482 353.347 264.332C349.21 266.183 345.081 266.941 341.763 266.692C338.422 266.441 336.035 265.19 335.131 263.169C334.227 261.147 334.885 258.534 336.926 255.876C338.952 253.237 342.269 250.664 346.407 248.814C350.544 246.963 354.673 246.205 357.991 246.454C361.332 246.705 363.719 247.957 364.623 249.978Z" fill="#001A2D" stroke="#001A2D"/>
<path d="M164.97 258.416C164.269 260.517 162.017 261.997 158.717 262.576C155.44 263.151 151.256 262.803 146.957 261.37C142.657 259.936 139.103 257.703 136.826 255.276C134.534 252.833 133.621 250.296 134.321 248.196C135.022 246.096 137.274 244.615 140.574 244.036C143.851 243.461 148.035 243.809 152.334 245.243C156.634 246.676 160.189 248.909 162.465 251.336C164.757 253.78 165.67 256.316 164.97 258.416Z" fill="#001A2D" stroke="#001A2D"/>
<path d="M246.031 411.08C246.031 411.08 245.215 438.386 251.994 451.226C268.205 481.934 336.366 477.061 353.639 446.718C361.427 433.037 370.5 411.079 370.5 411.079" stroke="#001A2D" stroke-width="15"/>
<path d="M395 396.5C395 407.916 385.953 417 375 417C364.047 417 355 407.916 355 396.5C355 385.084 364.047 376 375 376C385.953 376 395 385.084 395 396.5Z" fill="#D9D9D9" stroke="#001A2D" stroke-width="10"/>
<path d="M375.5 403.5C379.366 403.5 382.5 400.366 382.5 396.5C382.5 392.634 379.366 389.5 375.5 389.5C371.634 389.5 368.5 392.634 368.5 396.5C368.5 400.366 371.634 403.5 375.5 403.5Z" fill="#001A2D" stroke="#001A2D"/>
<path d="M198 107L166.5 57.0001C166.5 57.0001 180.159 49.7033 198 42.5596C215.107 35.7094 236.06 29.0001 252.5 29.0001C284.914 29.0001 335.5 57.0001 335.5 57.0001L302.5 107" stroke="#001A2D" stroke-width="15"/>
<path d="M239.142 71C236.313 71 234 68.5995 234 65.666V60.334C234 57.4005 236.313 55 239.142 55H264.858C267.687 55 270 57.4005 270 60.334V65.666C270 68.5995 267.687 71 264.858 71H239.142Z" fill="#DA4453"/>
<path d="M260 75.7154C260 78.6228 257.598 81 254.664 81H249.332C246.399 81 244 78.6228 244 75.7154V49.2846C244 46.3772 246.399 44 249.332 44H254.664C257.598 44 260 46.3772 260 49.2846V75.7154Z" fill="#ED5564"/>
<path d="M194.616 328.56C194.616 328.84 193.99 328.98 192.736 328.98C191.483 328.98 190.803 328.88 190.696 328.68L187.356 322.44V328.66C187.356 328.9 186.736 329.02 185.496 329.02C184.27 329.02 183.656 328.9 183.656 328.66V315.28C183.656 315.08 184.183 314.98 185.236 314.98C185.65 314.98 186.13 315.02 186.676 315.1C187.236 315.167 187.576 315.3 187.696 315.5L190.896 321.66V315.38C190.896 315.127 191.516 315 192.756 315C193.996 315 194.616 315.127 194.616 315.38V328.56ZM199.805 329.06C199.805 329.153 199.172 329.2 197.905 329.2C196.652 329.2 196.025 329.16 196.025 329.08V325.48C196.025 325.36 196.652 325.3 197.905 325.3C199.172 325.3 199.805 325.333 199.805 325.4V329.06ZM207.695 320.56C207.949 320.56 208.075 321.027 208.075 321.96C208.075 322.24 208.042 322.573 207.975 322.96C207.922 323.333 207.815 323.52 207.655 323.52H205.115V325.52H208.795C209.022 325.52 209.175 325.813 209.255 326.4C209.295 326.653 209.315 326.927 209.315 327.22C209.315 327.5 209.275 327.867 209.195 328.32C209.115 328.773 208.982 329 208.795 329H201.955C201.449 329 201.195 328.793 201.195 328.38V315.52C201.195 315.173 201.349 315 201.655 315H208.815C209.095 315 209.235 315.593 209.235 316.78C209.235 317.953 209.095 318.54 208.815 318.54H205.115V320.56H207.695ZM214.239 329.06C214.239 329.153 213.605 329.2 212.339 329.2C211.085 329.2 210.459 329.16 210.459 329.08V325.48C210.459 325.36 211.085 325.3 212.339 325.3C213.605 325.3 214.239 325.333 214.239 325.4V329.06ZM229.629 329.02C228.442 329.02 227.849 328.887 227.849 328.62L227.429 320.6L224.989 328.72C224.936 328.88 224.482 328.96 223.629 328.96C222.776 328.96 222.336 328.887 222.309 328.74L219.789 320.52L219.509 328.5C219.496 328.7 219.242 328.84 218.749 328.92C218.256 328.987 217.842 329.02 217.509 329.02C217.189 329.02 216.876 329 216.569 328.96C215.929 328.867 215.616 328.7 215.629 328.46L216.089 315.46C216.089 315.14 216.902 314.98 218.529 314.98C219.009 314.98 219.596 315.02 220.289 315.1C220.982 315.167 221.369 315.307 221.449 315.52L223.689 321.82L225.649 315.5C225.769 315.153 226.689 314.98 228.409 314.98C228.902 314.98 229.489 315.02 230.169 315.1C230.862 315.167 231.209 315.293 231.209 315.48L231.789 328.6C231.789 328.747 231.529 328.853 231.009 328.92C230.489 328.987 230.029 329.02 229.629 329.02ZM236.953 329.06C236.953 329.153 236.32 329.2 235.053 329.2C233.8 329.2 233.173 329.16 233.173 329.08V325.48C233.173 325.36 233.8 325.3 235.053 325.3C236.32 325.3 236.953 325.333 236.953 325.4V329.06Z" fill="#001A2D"/>
<defs>
<filter id="filter0_d_0_1" x="137" y="86.5" width="228" height="185" filterUnits="userSpaceOnUse" color-interpolation-filters="sRGB">
<feFlood flood-opacity="0" result="BackgroundImageFix"/>
<feColorMatrix in="SourceAlpha" type="matrix" values="0 0 0 0 0 0 0 0 0 0 0 0 0 0 0 0 0 0 127 0" result="hardAlpha"/>
<feOffset dy="4"/>
<feGaussianBlur stdDeviation="2"/>
<feComposite in2="hardAlpha" operator="out"/>
<feColorMatrix type="matrix" values="0 0 0 0 0 0 0 0 0 0 0 0 0 0 0 0 0 0 0.25 0"/>
<feBlend mode="normal" in2="BackgroundImageFix" result="effect1_dropShadow_0_1"/>
<feBlend mode="normal" in="SourceGraphic" in2="effect1_dropShadow_0_1" result="shape"/>
</filter>
</defs>
</svg>
