<svg width="1000" height="1000" viewBox="0 0 1000 1000" fill="none" xmlns="http://www.w3.org/2000/svg">
<circle cx="500" cy="500" r="500" fill="#64CC64"/>
<path d="M324 340C297.5 340 276 361.5 276 388V500H372V388C372 361.5 350.5 340 324 340ZM212 388C212 326.1 262.1 276 324 276C385.9 276 436 326.1 436 388V612C436 673.9 385.9 724 324 724C262.1 724 212 673.9 212 612V388ZM766.9 643.4C759.8 655.7 743.2 656.5 733.1 646.5L545.5 458.9C535.5 448.9 536.2 432.2 548.6 425.1C572 411.7 599.1 404 628 404C716.4 404 788 475.6 788 564C788 592.9 780.3 620 766.9 643.4ZM707.4 702.9C684 716.3 656.9 724 628 724C539.6 724 468 652.4 468 564C468 535.1 475.7 508 489.1 484.6C496.2 472.3 512.8 471.5 522.9 481.5L710.5 669.1C720.5 679.1 719.8 695.8 707.4 702.9Z" fill="#008000"/>
</svg>
